# xmcd CD database file
# Copyright (C) 1997 Ti Kan
# 
# Track frame offsets:
#     150
#     12642
#     27645
#     38542
#     51640
#     65307
#     78627
#     90000
#     102327
#     120507
#     135627
#     155195
#     172120
#     181925
#     192752
#     211712
# 
# Disc length: 3071 seconds
# 
# Revision: 1
# Processed by: cddbd v1.4b41PL1 Copyright (c) Steve Scherf et al.
# Submitted via: DiscPlay 4.0.4
# 
DISCID=d70bfd10
DTITLE=Various Artist - YesterYears
DYEAR=1900
DGENRE=
TTITLE0=Yellow River - Christie
TTITLE1=Release Me - Engelbert Humperdinck
TTITLE2=All I Have To Do Is Dream - Everly Brothers
TTITLE3=Please Mr. Postman - Carpenters
TTITLE4=Knock Three Times
TTITLE5=Me and You and A Dog Named Boo - Lobo
TTITLE6=Smoke Gets In Your Eyes - The Platters
TTITLE7=If You Go Away - Terry Jacks
TTITLE8=Winthin You'll Remain - Tokyo Squares
TTITLE9=Because I Love You - Shakin' Stevens
TTITLE10=Sailing - Rod Steward
TTITLE11=You've Lost That Lovin Feeling - Righteous' Brothers
TTITLE12=I Love How You Love Me - Paris Sisters
TTITLE13=Sea Of Love - Phil Philips
TTITLE14=The Air That I Breathe - The Hollies
TTITLE15=Baker Street - Gerry Rafferty
EXTD=
EXTT0=
EXTT1=
EXTT2=
EXTT3=
EXTT4=
EXTT5=
EXTT6=
EXTT7=
EXTT8=
EXTT9=
EXTT10=
EXTT11=
EXTT12=
EXTT13=
EXTT14=
EXTT15=
PLAYORDER=
